<svg width="15" height="14" viewBox="0 0 15 14" fill="none" xmlns="http://www.w3.org/2000/svg">
<path d="M5.88847 7.35C5.88847 5.52563 4.03362 3.675 2.20508 3.675C4.03362 3.675 5.88847 1.82438 5.88847 0C5.88847 1.82438 7.74332 3.675 9.57186 3.675C7.74332 3.675 5.88847 5.52563 5.88847 7.35Z" fill="white"/>
<path d="M5.88847 7.35C5.88847 5.52563 4.03362 3.675 2.20508 3.675C4.03362 3.675 5.88847 1.82438 5.88847 0C5.88847 1.82438 7.74332 3.675 9.57186 3.675C7.74332 3.675 5.88847 5.52563 5.88847 7.35Z" fill="white"/>
<path d="M9.9229 13.9992C9.9229 11.5688 7.44767 9.09922 5.01172 9.09922C7.44767 9.09922 9.9229 6.62962 9.9229 4.19922C9.9229 6.62962 12.3981 9.09922 14.8341 9.09922C12.3981 9.09922 9.9229 11.5688 9.9229 13.9992Z" fill="white"/>
<path d="M9.9229 13.9992C9.9229 11.5688 7.44767 9.09922 5.01172 9.09922C7.44767 9.09922 9.9229 6.62962 9.9229 4.19922C9.9229 6.62962 12.3981 9.09922 14.8341 9.09922C12.3981 9.09922 9.9229 11.5688 9.9229 13.9992Z" fill="white"/>
<path d="M3.25637 13.3004C3.25637 12.0859 2.01805 10.8504 0.800781 10.8504C2.01805 10.8504 3.25637 9.61489 3.25637 8.40039C3.25637 9.61489 4.49469 10.8504 5.71197 10.8504C4.49469 10.8504 3.25637 12.0859 3.25637 13.3004Z" fill="white"/>
</svg>
