<svg width="15" height="14" viewBox="0 0 15 14" fill="none" xmlns="http://www.w3.org/2000/svg">
<path d="M5.08886 7.35C5.08886 5.52563 3.2344 3.675 1.40625 3.675C3.2344 3.675 5.08886 1.82438 5.08886 0C5.08886 1.82438 6.94331 3.675 8.77146 3.675C6.94331 3.675 5.08886 5.52563 5.08886 7.35Z" fill="#077CEA"/>
<path d="M5.08886 7.35C5.08886 5.52563 3.2344 3.675 1.40625 3.675C3.2344 3.675 5.08886 1.82438 5.08886 0C5.08886 1.82438 6.94331 3.675 8.77146 3.675C6.94331 3.675 5.08886 5.52563 5.08886 7.35Z" fill="#077CEA"/>
<path d="M9.12108 13.9992C9.12108 11.5688 6.64637 9.09922 4.21094 9.09922C6.64637 9.09922 9.12108 6.62962 9.12108 4.19922C9.12108 6.62962 11.5958 9.09922 14.0312 9.09922C11.5958 9.09922 9.12108 11.5688 9.12108 13.9992Z" fill="#077CEA"/>
<path d="M9.12108 13.9992C9.12108 11.5688 6.64637 9.09922 4.21094 9.09922C6.64637 9.09922 9.12108 6.62962 9.12108 4.19922C9.12108 6.62962 11.5958 9.09922 14.0312 9.09922C11.5958 9.09922 9.12108 11.5688 9.12108 13.9992Z" fill="#077CEA"/>
<path d="M2.45507 13.3004C2.45507 12.0859 1.21701 10.8504 0 10.8504C1.21701 10.8504 2.45507 9.61489 2.45507 8.40039C2.45507 9.61489 3.69313 10.8504 4.91014 10.8504C3.69313 10.8504 2.45507 12.0859 2.45507 13.3004Z" fill="#077CEA"/>
</svg>
