<svg width="59" height="49" viewBox="0 0 59 49" fill="none" xmlns="http://www.w3.org/2000/svg">
<path d="M29.5288 8.78498C39.3715 8.88155 45.5376 8.26915 46.3704 19.1788H58.3731C58.3731 2.27805 43.6334 0 29.2163 0C14.7982 0 0.0595703 2.27805 0.0595703 19.1788H11.9691C12.8905 8.06123 19.7678 8.68954 29.5288 8.78498Z" fill="white"/>
<path d="M6.01155 24.612C8.93495 24.612 11.3675 24.787 11.9083 21.9113C11.9811 21.5205 12.0231 21.0774 12.0231 20.5649H11.8845H0C0 24.8427 2.69162 24.612 6.01155 24.612Z" fill="white"/>
<path d="M46.4474 20.5649H46.335C46.335 21.0808 46.3793 21.525 46.4622 21.9113C47.0326 24.5632 49.4617 24.3984 52.3749 24.3984C55.7108 24.3984 58.4149 24.6177 58.4149 20.5649H46.4474Z" fill="white"/>
<path d="M40.5831 17.6517V15.952C40.5831 15.1919 39.7071 15.1442 38.6255 15.1442H36.8587C35.7782 15.1442 34.9022 15.1919 34.9022 15.952V17.4165V18.5527H22.4042V17.4165V15.952C22.4042 15.1919 21.5282 15.1442 20.4477 15.1442H18.6798C17.5993 15.1442 16.7233 15.1919 16.7233 15.952V17.6517V19.1356C13.876 22.0942 4.55929 34.6888 4.2207 36.2136L4.22525 46.3881C4.22525 47.3277 4.9899 48.0924 5.92952 48.0924H51.3769C52.3165 48.0924 53.0812 47.3277 53.0812 46.3881V36.1624C52.746 34.682 43.4315 22.0931 40.5831 19.1344V17.6517ZM21.7884 37.5827C20.8738 37.5827 20.1318 36.8419 20.1318 35.9261C20.1318 35.0103 20.8738 34.2696 21.7884 34.2696C22.703 34.2696 23.4449 35.0103 23.4449 35.9261C23.4449 36.8419 22.703 37.5827 21.7884 37.5827ZM21.7884 31.9017C20.8738 31.9017 20.1318 31.161 20.1318 30.2452C20.1318 29.3294 20.8738 28.5886 21.7884 28.5886C22.703 28.5886 23.4449 29.3294 23.4449 30.2452C23.4449 31.161 22.703 31.9017 21.7884 31.9017ZM21.7884 26.222C20.8738 26.222 20.1318 25.4812 20.1318 24.5654C20.1318 23.6508 20.8738 22.9088 21.7884 22.9088C22.703 22.9088 23.4449 23.6508 23.4449 24.5654C23.4449 25.4812 22.703 26.222 21.7884 26.222ZM28.6055 37.5827C27.6909 37.5827 26.9489 36.8419 26.9489 35.9261C26.9489 35.0103 27.6909 34.2696 28.6055 34.2696C29.5212 34.2696 30.262 35.0103 30.262 35.9261C30.262 36.8419 29.5212 37.5827 28.6055 37.5827ZM28.6055 31.9017C27.6909 31.9017 26.9489 31.161 26.9489 30.2452C26.9489 29.3294 27.6909 28.5886 28.6055 28.5886C29.5212 28.5886 30.262 29.3294 30.262 30.2452C30.262 31.161 29.5212 31.9017 28.6055 31.9017ZM28.6055 26.222C27.6909 26.222 26.9489 25.4812 26.9489 24.5654C26.9489 23.6508 27.6909 22.9088 28.6055 22.9088C29.5212 22.9088 30.262 23.6508 30.262 24.5654C30.262 25.4812 29.5212 26.222 28.6055 26.222ZM35.4226 37.5827C34.5068 37.5827 33.766 36.8419 33.766 35.9261C33.766 35.0103 34.5068 34.2696 35.4226 34.2696C36.3383 34.2696 37.0791 35.0103 37.0791 35.9261C37.0791 36.8419 36.3383 37.5827 35.4226 37.5827ZM35.4226 31.9017C34.5068 31.9017 33.766 31.161 33.766 30.2452C33.766 29.3294 34.5068 28.5886 35.4226 28.5886C36.3383 28.5886 37.0791 29.3294 37.0791 30.2452C37.0791 31.161 36.3383 31.9017 35.4226 31.9017ZM35.4226 26.222C34.5068 26.222 33.766 25.4812 33.766 24.5654C33.766 23.6508 34.5068 22.9088 35.4226 22.9088C36.3383 22.9088 37.0791 23.6508 37.0791 24.5654C37.0791 25.4812 36.3383 26.222 35.4226 26.222Z" fill="white"/>
</svg>
