<svg width="14" height="14" viewBox="0 0 14 14" fill="none" xmlns="http://www.w3.org/2000/svg">
<path d="M5.07539 7.35C5.07539 5.52563 3.22477 3.675 1.40039 3.675C3.22477 3.675 5.07539 1.82438 5.07539 0C5.07539 1.82438 6.92602 3.675 8.75039 3.675C6.92602 3.675 5.07539 5.52563 5.07539 7.35Z" fill="#077CEA"/>
<path d="M5.07539 7.35C5.07539 5.52563 3.22477 3.675 1.40039 3.675C3.22477 3.675 5.07539 1.82438 5.07539 0C5.07539 1.82438 6.92602 3.675 8.75039 3.675C6.92602 3.675 5.07539 5.52563 5.07539 7.35Z" fill="#077CEA"/>
<path d="M9.09922 13.9997C9.09922 11.5693 6.62962 9.09971 4.19922 9.09971C6.62962 9.09971 9.09922 6.63011 9.09922 4.19971C9.09922 6.63011 11.5688 9.09971 13.9992 9.09971C11.5688 9.09971 9.09922 11.5693 9.09922 13.9997Z" fill="#077CEA"/>
<path d="M9.09922 13.9997C9.09922 11.5693 6.62962 9.09971 4.19922 9.09971C6.62962 9.09971 9.09922 6.63011 9.09922 4.19971C9.09922 6.63011 11.5688 9.09971 13.9992 9.09971C11.5688 9.09971 9.09922 11.5693 9.09922 13.9997Z" fill="#077CEA"/>
<path d="M2.45 13.2999C2.45 12.0854 1.2145 10.8499 0 10.8499C1.2145 10.8499 2.45 9.6144 2.45 8.3999C2.45 9.6144 3.6855 10.8499 4.9 10.8499C3.6855 10.8499 2.45 12.0854 2.45 13.2999Z" fill="#077CEA"/>
</svg>
